<svg width="23" height="23" viewBox="0 0 23 23" fill="none" xmlns="http://www.w3.org/2000/svg">
<path d="M18.0625 11.5L18.7696 12.2071C19.1601 11.8166 19.1601 11.1834 18.7696 10.7929L18.0625 11.5ZM4.9375 10.5C4.38522 10.5 3.9375 10.9477 3.9375 11.5C3.9375 12.0523 4.38522 12.5 4.9375 12.5V10.5ZM12.1054 16.0429C11.7149 16.4334 11.7149 17.0666 12.1054 17.4571C12.4959 17.8476 13.1291 17.8476 13.5196 17.4571L12.1054 16.0429ZM13.5196 5.54289C13.1291 5.15237 12.4959 5.15237 12.1054 5.54289C11.7149 5.93342 11.7149 6.56658 12.1054 6.95711L13.5196 5.54289ZM18.0625 10.5L4.9375 10.5V12.5L18.0625 12.5V10.5ZM13.5196 17.4571L18.7696 12.2071L17.3554 10.7929L12.1054 16.0429L13.5196 17.4571ZM18.7696 10.7929L13.5196 5.54289L12.1054 6.95711L17.3554 12.2071L18.7696 10.7929ZM6.25 2H16.75V0H6.25V2ZM21 6.25V16.75H23V6.25H21ZM16.75 21H6.25V23H16.75V21ZM2 16.75V6.25H0V16.75H2ZM6.25 21C3.90279 21 2 19.0972 2 16.75H0C0 20.2018 2.79822 23 6.25 23V21ZM21 16.75C21 19.0972 19.0972 21 16.75 21V23C20.2018 23 23 20.2018 23 16.75H21ZM16.75 2C19.0972 2 21 3.90279 21 6.25H23C23 2.79822 20.2018 0 16.75 0V2ZM6.25 0C2.79822 0 0 2.79822 0 6.25H2C2 3.90279 3.90279 2 6.25 2V0Z" fill="white"/>
</svg>
